<svg version="1.2" xmlns="http://www.w3.org/2000/svg" viewBox="0 0 41 41" width="41" height="41">
	<title>scrltop (1)-svg</title>
	<style>
		.s0 { fill: #003087 } 
		.s1 { fill: #ffffff } 
	</style>
	<path id="Layer" class="s0" d="m20.5 41c-11.3 0-20.5-9.2-20.5-20.5 0-11.3 9.2-20.5 20.5-20.5 11.3 0 20.5 9.2 20.5 20.5 0 11.3-9.2 20.5-20.5 20.5z"/>
	<path id="Layer" fill-rule="evenodd" class="s1" d="m10.1 19.4l1.2 1.1 9.2-9.3 9.2 9.3 1.2-1.1-9.8-9.9-0.6-0.5-0.6 0.5zm-2.9 9.9l1.4 1.5 11.9-12.1 11.9 12.1 1.4-1.5-12.6-12.8-0.7-0.7-0.7 0.7z"/>
</svg>